<svg width="6.75em" height="2.5em" viewBox="0 0 108 40" fill="none" xmlns="http://www.w3.org/2000/svg"><path d="M38.085 2.537v7.665h-3.98v4.535h3.98v16.356c0 5.776 1.936 8.097 7.692 8.097h2.152v-4.643h-.377c-2.528 0-3.442-.972-3.442-3.51v-16.3h4.68v-4.535h-4.68V2.537h-6.025zM15.654 34.224c-5.971 0-9.145-3.616-9.145-11.713V0H0v22.025C0 34.764 5.38 40 15.654 40c10.273 0 15.707-5.236 15.707-17.975V0h-6.509v22.51c0 8.098-3.228 11.714-9.198 11.714zM87.305 0h-6.24v6.046h6.24V0zm0 10.202h-6.24v28.989h6.24V10.202zM108 9.771c-.215-.108-.806-.27-1.506-.27-4.25 0-6.778 2.537-8.23 5.668v-4.967H92.4v28.989h6.078V23.21c0-4.857 2.421-7.18 7.263-7.18H108v-6.26zM69.823 25.263v1.89c0 4.696-3.82 8.043-8.338 8.043-2.582 0-4.841-1.512-4.841-4.103 0-2.429 2.044-4.32 5.595-4.805l7.584-1.025zM59.925 40c5.056 0 8.445-1.997 10.328-4.859v4.05H75.9V22.402c0-11.228-6.025-13.387-12.265-13.387-8.069 0-11.888 4.481-12.319 10.095h6.401c.431-3.293 2.798-5.29 6.025-5.29 3.389 0 6.079 1.944 6.079 7.287l-9.199.918c-8.767.864-10.758 5.398-10.758 9.07 0 5.612 4.465 8.905 10.06 8.905z" fill="hsl(220, 20%, 88%)"></path></svg>