<svg xmlns="http://www.w3.org/2000/svg" width="216" height="62.507" viewBox="0 0 216 62.507">
  <g id="logo-RVC-WEB-RU-Color-White_text" transform="translate(-218.3 -230.8)">
    <g id="Group_1" data-name="Group 1" transform="translate(218.3 244.049)">
      <path id="Path_1" data-name="Path 1" d="M233.587,277.6H218.3v49.258h49.145V311.571H233.587Z" transform="translate(-218.3 -277.6)" fill="hsl(220, 20%, 88%)"/>
      <path id="Path_2" data-name="Path 2" d="M287.87,296V277.6H272.3v33.971h33.858V296Z" transform="translate(-257.013 -277.6)" fill="hsl(220, 20%, 88%)"/>
      <rect id="Rectangle_1" data-name="Rectangle 1" width="18.288" height="18.401" transform="translate(30.857)" fill="hsl(220, 20%, 88%)"/>
    </g>
    <path id="Path_3" data-name="Path 3" d="M327.3,246.3v4.218h22.959v23.044h4.246V246.3Z" transform="translate(-78.143 -11.112)" fill="hsl(220, 20%, 88%)" fill-rule="evenodd"/>
    <g id="Group_2" data-name="Group 2" transform="translate(291.678 230.8)">
      <path id="Path_4" data-name="Path 4" d="M483.19,246.2c3.6,0,5.492,1.868,5.492,4.36s-1.9,4.36-5.492,4.36H479.2v4.558h-1.7V246.2h5.69Zm0,1.5H479.2v5.69h3.992c2.548,0,3.793-1.246,3.793-2.859C486.984,248.946,485.738,247.7,483.19,247.7Z" transform="translate(-477.5 -241.84)" fill="hsl(220, 20%, 88%)"/>
      <path id="Path_5" data-name="Path 5" d="M526.4,252.753a6.457,6.457,0,1,1,6.454,6.653A6.48,6.48,0,0,1,526.4,252.753Zm11.324,0a4.854,4.854,0,1,0-4.841,5.209A4.915,4.915,0,0,0,537.724,252.753Z" transform="translate(-512.557 -241.769)" fill="hsl(220, 20%, 88%)"/>
      <path id="Path_6" data-name="Path 6" d="M593.11,246.679a5.114,5.114,0,0,1,1.1.623l-.708,1.161c-.283-.17-.623-.34-.962-.51a5.814,5.814,0,0,0-2.378-.481,5.21,5.21,0,0,0,0,10.418,5.7,5.7,0,0,0,2.52-.594,6.162,6.162,0,0,0,.963-.566l.708,1.161a4.524,4.524,0,0,1-1.132.708,7.091,7.091,0,0,1-3.086.708,6.653,6.653,0,1,1,0-13.305A8.225,8.225,0,0,1,593.11,246.679Z" transform="translate(-553.42 -241.697)" fill="hsl(220, 20%, 88%)"/>
      <path id="Path_7" data-name="Path 7" d="M640.41,246.679a5.114,5.114,0,0,1,1.1.623l-.708,1.161c-.283-.17-.623-.34-.963-.51a5.814,5.814,0,0,0-2.378-.481,5.21,5.21,0,0,0,0,10.418,5.7,5.7,0,0,0,2.52-.594,6.168,6.168,0,0,0,.963-.566l.708,1.161a4.524,4.524,0,0,1-1.132.708,7.092,7.092,0,0,1-3.086.708,6.653,6.653,0,1,1,0-13.305A8.224,8.224,0,0,1,640.41,246.679Z" transform="translate(-587.33 -241.697)" fill="hsl(220, 20%, 88%)"/>
      <path id="Path_8" data-name="Path 8" d="M682.983,256.631l8.068-10.531h1.7v13.277h-1.7V248.846h-.085L682.9,259.377h-1.7V246.1h1.7v10.531Z" transform="translate(-623.534 -241.769)" fill="hsl(220, 20%, 88%)"/>
      <path id="Path_9" data-name="Path 9" d="M738.312,245.662l8.068-10.531h1.7v13.277h-1.7V237.877h-.113L738.2,248.408h-1.7V235.131h1.7v10.531h.113Zm.764-14.862h1.415a1.812,1.812,0,0,0,3.624,0h1.415a3.228,3.228,0,0,1-6.455,0Z" transform="translate(-663.179 -230.8)" fill="hsl(220, 20%, 88%)"/>
      <path id="Path_10" data-name="Path 10" d="M799.81,246.679a5.114,5.114,0,0,1,1.1.623l-.708,1.161c-.283-.17-.623-.34-.963-.51a5.814,5.814,0,0,0-2.378-.481,5.21,5.21,0,0,0,0,10.418,5.7,5.7,0,0,0,2.52-.594,6.168,6.168,0,0,0,.963-.566l.708,1.161a4.524,4.524,0,0,1-1.132.708,7.092,7.092,0,0,1-3.086.708,6.653,6.653,0,1,1,0-13.305A8.224,8.224,0,0,1,799.81,246.679Z" transform="translate(-701.605 -241.697)" fill="hsl(220, 20%, 88%)"/>
      <path id="Path_11" data-name="Path 11" d="M899.487,259.477h-1.812l-1.331-3.029h-7.5l-1.331,3.029H885.7l5.775-13.277h2.18Zm-9.937-4.558h6.143l-3.029-6.936h-.085Z" transform="translate(-770.141 -241.84)" fill="hsl(220, 20%, 88%)"/>
      <path id="Path_12" data-name="Path 12" d="M950.831,246.2v13.277h-1.7v-4.926h-4.756l-3.6,4.926H938.8l3.793-5.209v-.085a4.018,4.018,0,0,1-1.415-.764,3.554,3.554,0,0,1-1.416-3.029c0-2.35,1.812-4.161,5.322-4.161h5.747Zm-5.775,6.823h4.077V247.7h-4.077c-2.435,0-3.6,1.132-3.6,2.661S942.593,253.023,945.056,253.023Z" transform="translate(-808.209 -241.84)" fill="hsl(220, 20%, 88%)"/>
      <path id="Path_13" data-name="Path 13" d="M477.5,325.4h5.888c3.51,0,5.039,1.529,5.039,3.6a2.465,2.465,0,0,1-1.076,2.095,3.587,3.587,0,0,1-1.1.51v.085a5.574,5.574,0,0,1,1.585.594,2.874,2.874,0,0,1,1.557,2.6c0,1.982-1.812,3.793-5.237,3.793h-6.624V325.4Zm5.86,5.407c1.529,0,2.265-.764,2.265-1.614s-.764-1.614-2.265-1.614h-3.227v3.227Zm-3.227,2.18v3.51h3.992c1.727,0,2.463-.736,2.463-1.7,0-1.076-.736-1.812-2.463-1.812Z" transform="translate(-477.5 -298.619)" fill="hsl(220, 20%, 88%)"/>
      <path id="Path_14" data-name="Path 14" d="M536.5,325.4h10.616v2.18h-7.955v3.425h5.492v2.18h-5.492V336.5h8.153v2.18H536.5Z" transform="translate(-519.797 -298.619)" fill="hsl(220, 20%, 88%)"/>
      <path id="Path_15" data-name="Path 15" d="M602.345,325.4v13.277h-2.661v-5.492h-6.823v5.492H590.2V325.4h2.661v5.605h6.823V325.4Z" transform="translate(-558.295 -298.619)" fill="hsl(220, 20%, 88%)"/>
      <path id="Path_16" data-name="Path 16" d="M650.3,325.4h2.661v3.793a3,3,0,0,0,3.029,3.029,8.618,8.618,0,0,0,2.151-.283c.311-.085.594-.2.878-.283V325.4h2.661v13.277h-2.661v-4.756c-.255.085-.566.2-.878.283a9.966,9.966,0,0,1-2.321.283,5.113,5.113,0,0,1-5.492-5.322V325.4Z" transform="translate(-601.381 -298.619)" fill="hsl(220, 20%, 88%)"/>
      <path id="Path_17" data-name="Path 17" d="M710.375,334.982h-1.132L704.6,325.3h2.944l3.6,7.672h.2l3.6-7.672h2.944l-6.256,13.277h-2.944Z" transform="translate(-640.31 -298.548)" fill="hsl(220, 20%, 88%)"/>
      <path id="Path_18" data-name="Path 18" d="M771.086,325.4c3.709,0,5.69,1.982,5.69,4.558,0,2.548-1.982,4.558-5.69,4.558h-3.425v4.161H765V325.4Zm-3.425,2.18v4.756h3.425c1.812,0,2.944-1.132,2.944-2.378s-1.132-2.378-2.944-2.378Z" transform="translate(-683.611 -298.619)" fill="hsl(220, 20%, 88%)"/>
      <path id="Path_19" data-name="Path 19" d="M833.545,325.4v13.277h-2.661v-5.492h-6.823v5.492H821.4V325.4h2.661v5.605h6.823V325.4Z" transform="translate(-724.044 -298.619)" fill="hsl(220, 20%, 88%)"/>
      <path id="Path_20" data-name="Path 20" d="M891.9,338.677h-2.831l-1.047-2.661h-6.539l-1.047,2.661H877.6l5.492-13.277H886.4Zm-9.484-4.954h4.643l-2.265-5.492h-.085Z" transform="translate(-764.334 -298.619)" fill="hsl(220, 20%, 88%)"/>
      <path id="Path_21" data-name="Path 21" d="M949.326,325.4v13.277h-2.661v-4.558h-3.708l-3.227,4.558H936.7l3.6-5.039v-.085a4.176,4.176,0,0,1-1.331-.764,3.745,3.745,0,0,1-1.33-3.029c0-2.548,1.812-4.36,5.492-4.36Zm-6.143,6.539h3.51v-4.36h-3.51c-1.812,0-2.746.963-2.746,2.18C940.408,330.807,941.371,331.939,943.183,331.939Z" transform="translate(-806.704 -298.619)" fill="hsl(220, 20%, 88%)"/>
      <path id="Path_22" data-name="Path 22" d="M536,411.253a6.457,6.457,0,1,1,6.455,6.653A6.48,6.48,0,0,1,536,411.253Zm11.3,0a4.854,4.854,0,1,0-4.841,5.209A4.915,4.915,0,0,0,547.3,411.253Z" transform="translate(-519.439 -355.398)" fill="hsl(220, 20%, 88%)"/>
      <path id="Path_23" data-name="Path 23" d="M609.09,415.9l-4.161-8.549h-.085L603.6,417.877h-1.7l1.614-13.277h1.9l4.445,9.2h.085l4.445-9.2h1.9l1.614,13.277h-1.7l-1.246-10.531h-.085L610.7,415.9Z" transform="translate(-566.683 -355.398)" fill="hsl(220, 20%, 88%)"/>
      <path id="Path_24" data-name="Path 24" d="M693.75,404.6v13.277h-1.7V406.129H683.9v11.748h-1.7V404.6Z" transform="translate(-624.251 -355.398)" fill="hsl(220, 20%, 88%)"/>
      <path id="Path_25" data-name="Path 25" d="M758.387,417.877h-1.812l-1.331-3.029h-7.5l-1.331,3.029H744.6l5.775-13.277h2.18Zm-9.965-4.558h6.171l-3.057-6.907h-.085Z" transform="translate(-668.986 -355.398)" fill="hsl(220, 20%, 88%)"/>
      <path id="Path_26" data-name="Path 26" d="M824.55,404.6v13.277h-1.7V412.1H814.7v5.775H813V404.6h1.7v5.973h8.153V404.6Z" transform="translate(-718.022 -355.398)" fill="hsl(220, 20%, 88%)"/>
      <path id="Path_27" data-name="Path 27" d="M880.283,415.131l8.068-10.531h1.7v13.277h-1.7V407.346h-.085L880.2,417.877h-1.7V404.6h1.7v10.531Z" transform="translate(-764.98 -355.398)" fill="hsl(220, 20%, 88%)"/>
      <path id="Path_28" data-name="Path 28" d="M950.831,404.6v13.277h-1.7v-4.926h-4.756l-3.6,4.926H938.8l3.793-5.209v-.085a4.018,4.018,0,0,1-1.415-.764,3.554,3.554,0,0,1-1.416-3.029c0-2.35,1.812-4.161,5.322-4.161h5.747Zm-5.775,6.823h4.077v-5.294h-4.077c-2.435,0-3.6,1.132-3.6,2.661C941.461,410.29,942.593,411.423,945.056,411.423Z" transform="translate(-808.209 -355.398)" fill="hsl(220, 20%, 88%)"/>
      <path id="Path_29" data-name="Path 29" d="M845.19,251.607l5.888,7.87h-2.095l-5.039-6.738-2.746,2.746v3.992h-1.7V246.2h1.7v7.106h.085L848.5,246.2h2.18Z" transform="translate(-737.02 -241.84)" fill="hsl(220, 20%, 88%)"/>
      <path id="Path_30" data-name="Path 30" d="M483.19,410.007l5.888,7.87h-2.095l-5.039-6.738-2.746,2.746v3.992h-1.7V404.6h1.7v7.106h.085L486.5,404.6h2.18Z" transform="translate(-477.5 -355.398)" fill="hsl(220, 20%, 88%)"/>
    </g>
  </g>
</svg>